<svg width="960" height="732" viewBox="0 0 960 732" fill="none" xmlns="http://www.w3.org/2000/svg">
<g clip-path="url(#clip0_1_2)">
<path d="M960 0H0V732H960V0Z" fill="#003262"/>
<mask id="mask0_1_2" style="mask-type:luminance" maskUnits="userSpaceOnUse" x="0" y="80" width="960" height="652">
<path d="M960 80H0V732H960V80Z" fill="white"/>
</mask>
<g mask="url(#mask0_1_2)">
<g opacity="0.8">
<path d="M800.716 1025.34L800.498 1025.21C782.326 1014.07 768.275 997.317 760.472 977.484L719.027 872.233C718.086 869.842 716.67 867.666 714.863 865.839C713.057 864.011 710.898 862.57 708.518 861.601L689.54 853.879C689.54 853.879 638.528 735.807 613.84 604.419L769.162 812.976C769.905 813.967 770.864 814.774 771.967 815.337C773.07 815.899 774.288 816.201 775.526 816.22C776.764 816.239 777.99 815.973 779.109 815.445C780.229 814.916 781.213 814.138 781.985 813.17L844.569 739.619C845.468 738.492 845.971 737.099 846 735.657C846.028 734.216 845.58 732.805 844.725 731.643L656.695 480.207C656.207 479.543 655.578 478.996 654.853 478.604C654.129 478.212 653.327 477.984 652.504 477.939C651.682 477.893 650.859 478.029 650.095 478.338C649.332 478.648 648.646 479.122 648.087 479.727L632.194 495.017C630.088 497.092 627.562 498.69 624.785 499.703C622.008 500.716 619.046 501.121 616.099 500.889C613.152 500.658 610.289 499.796 607.704 498.362C605.12 496.928 602.873 494.956 601.117 492.578L577.431 460.533L759.323 275.768C760.492 274.579 761.21 273.02 761.353 271.36C761.497 269.699 761.057 268.04 760.11 266.668L701.854 182.476C701.318 181.701 700.622 181.05 699.811 180.569C699.001 180.089 698.096 179.789 697.159 179.69C696.221 179.592 695.274 179.697 694.381 179.999C693.489 180.301 692.672 180.793 691.987 181.44L525.386 338.776C524.676 339.447 524.234 340.353 524.141 341.325C524.048 342.297 524.31 343.27 524.88 344.064L551.458 380.85C557.625 389.381 557.478 401.875 550.544 409.125C545.644 414.248 544.044 415.925 544.044 415.925L297.296 83.069C296.702 82.2675 295.956 81.591 295.101 81.0784C294.245 80.5658 293.297 80.2271 292.31 80.0817C291.323 79.9363 290.317 79.9871 289.35 80.2312C288.383 80.4752 287.474 80.9078 286.674 81.504L205.992 141.618C205.133 142.261 204.409 143.067 203.863 143.991C203.316 144.914 202.958 145.937 202.809 147C202.66 148.062 202.722 149.144 202.993 150.183C203.264 151.221 203.738 152.196 204.387 153.05L386.336 392.762C387.249 393.964 387.736 395.435 387.721 396.944C387.706 398.453 387.19 399.914 386.253 401.097C379.768 409.274 364.246 428.797 345.194 452.497C330.309 471.012 313.262 492.071 296.683 512.257C295.65 513.515 294.913 514.989 294.528 516.57C294.143 518.152 294.119 519.8 294.458 521.392C294.798 522.983 295.492 524.478 296.489 525.765C297.485 527.052 298.759 528.097 300.216 528.824L304.541 530.976C309.323 533.362 313.167 537.283 315.457 542.111C317.748 546.94 318.352 552.397 317.175 557.61C305.753 608.284 270.051 752.51 213.189 854.568C206.628 866.336 197.556 876.516 186.619 884.385C175.681 892.253 163.146 897.618 149.902 900.097L149.064 900.252C144.481 901.109 145.264 907.887 149.923 907.691C159.446 907.291 169.074 907.008 178.809 906.841C256.67 905.487 340.915 911.327 428.424 924.988C455.491 929.213 482.839 934.186 510.468 939.907C532.668 944.528 554.518 949.547 576.018 954.962C593.668 959.386 611.061 964.057 628.196 968.974C630.523 969.64 632.86 970.293 635.173 970.964C687.415 986.202 721.194 999.837 767.673 1018.98C777.744 1023.13 787.658 1027.35 797.417 1031.66C798.246 1032.02 799.184 1032.06 800.039 1031.76C800.895 1031.46 801.605 1030.85 802.024 1030.05C802.444 1029.24 802.542 1028.31 802.299 1027.44C802.056 1026.56 801.49 1025.81 800.716 1025.34ZM638.99 948.307L638.932 948.286L616.021 852.455L588.151 865.472L579.732 902.372C578.961 905.768 577.521 908.976 575.496 911.808C573.471 914.641 570.901 917.041 567.938 918.869C564.974 920.698 561.676 921.917 558.236 922.455C554.796 922.994 551.283 922.842 547.902 922.007C534.38 918.691 520.657 915.582 506.732 912.68C493.857 909.998 481.06 907.548 468.342 905.331C470.518 782.945 475.694 649.231 475.694 649.231L356.825 773.576L291.994 693.448C291.994 693.448 443.845 542.741 467.994 518.872C468.222 518.644 468.378 518.355 468.444 518.04C468.51 517.724 468.482 517.396 468.364 517.097C468.246 516.797 468.043 516.538 467.78 516.352C467.517 516.166 467.206 516.061 466.884 516.049C395.276 513.524 355.959 529.54 338.955 536.18C338.604 536.314 338.217 536.317 337.864 536.19C337.511 536.062 337.215 535.812 337.031 535.485C336.847 535.158 336.786 534.776 336.86 534.408C336.933 534.04 337.137 533.711 337.433 533.48C390.269 492.852 484.295 496.492 490.342 496.995L524.195 463.253C525.881 461.57 526.905 459.338 527.081 456.963C527.258 454.588 526.574 452.228 525.156 450.315L497.136 412.526C493.744 407.948 489.429 404.132 484.47 401.326C479.511 398.519 474.018 396.785 468.347 396.233C462.676 395.682 456.952 396.327 451.545 398.126C446.139 399.925 441.169 402.838 436.959 406.677L428.015 414.827L227.18 150.495L287.48 105.657L536.644 440.231C537.261 441.06 538.049 441.746 538.957 442.241C539.864 442.737 540.867 443.03 541.898 443.1C542.929 443.17 543.963 443.016 544.929 442.648C545.895 442.281 546.77 441.708 547.493 440.97L560.82 427.387C568.299 419.76 572.832 409.73 573.615 399.077C574.398 388.424 571.38 377.838 565.096 369.2L547.096 344.466L695.553 202.976L740.976 267.766L557.326 453.715C555.651 455.411 554.642 457.654 554.485 460.032C554.327 462.411 555.032 464.767 556.469 466.669L584.13 503.255C600.509 523.27 631.081 524.747 648.671 505.626L651.194 502.881L823.819 732.827L775.893 787.649L546.214 478.571C545.427 477.513 544.421 476.638 543.265 476.005C542.108 475.373 540.828 474.998 539.513 474.907C538.198 474.816 536.878 475.011 535.646 475.478C534.413 475.945 533.296 476.673 532.371 477.613L509.302 501.067C552.146 513.207 580.147 528.867 591.902 586.105C603.657 643.343 630.927 766.984 671.602 871.674L700.208 882.239L737.846 987.557C737.846 987.557 668.686 958.262 638.99 948.307ZM570.772 395.33L570.885 395.222L570.912 395.26L570.784 395.341L570.772 395.33Z" fill="#002B59"/>
</g>
</g>
</g>
<defs>
<clipPath id="clip0_1_2">
<rect width="960" height="732" fill="white"/>
</clipPath>
</defs>
</svg>
